HIERARCHY
ROOT Hips
{
	OFFSET 0.000000 0.000000 0.000000
	CHANNELS 6 Xposition Yposition Zposition Xrotation Yrotation Zrotation
	JOINT LeftUpLeg_virtual
	{
		OFFSET 0.000000 0.000000 0.000000
		CHANNELS 3 Xrotation Yrotation Zrotation
		JOINT LeftUpLeg
		{
			OFFSET 15.427100 -6.655098 0.678600
			CHANNELS 3 Xrotation Yrotation Zrotation
			JOINT LeftLeg
			{
				OFFSET 4.081073 -39.591068 13.024000
				CHANNELS 3 Xrotation Yrotation Zrotation
				JOINT LeftFoot
				{
					OFFSET -4.081074 -37.707932 -15.979700
					CHANNELS 3 Xrotation Yrotation Zrotation
					JOINT LeftToeBase
					{
						OFFSET 5.346399 -15.068900 20.645000
						CHANNELS 3 Xrotation Yrotation Zrotation
						JOINT LeftToe_End
						{
							OFFSET 2.754700 0.931300 11.300900
							CHANNELS 3 Xrotation Yrotation Zrotation
							End Site
							{
								OFFSET 0 0 0
							}
						}
					}
				}
			}
		}
	}
	JOINT RightUpLeg_virtual
	{
		OFFSET 0.000000 0.000000 0.000000
		CHANNELS 3 Xrotation Yrotation Zrotation
		JOINT RightUpLeg
		{
			OFFSET -15.569500 -6.655098 0.678600
			CHANNELS 3 Xrotation Yrotation Zrotation
			JOINT RightLeg
			{
				OFFSET -4.081825 -39.591045 13.023800
				CHANNELS 3 Xrotation Yrotation Zrotation
				JOINT RightFoot
				{
					OFFSET 4.081824 -37.707954 -15.979600
					CHANNELS 3 Xrotation Yrotation Zrotation
					JOINT RightToeBase
					{
						OFFSET -5.346400 -15.068900 20.645000
						CHANNELS 3 Xrotation Yrotation Zrotation
						JOINT RightToe_End
						{
							OFFSET -2.754700 0.931300 11.300900
							CHANNELS 3 Xrotation Yrotation Zrotation
							End Site
							{
								OFFSET 0 0 0
							}
						}
					}
				}
			}
		}
	}
	JOINT Spine_virtual
	{
		OFFSET 0.000000 0.000000 0.000000
		CHANNELS 3 Xrotation Yrotation Zrotation
		JOINT Spine
		{
			OFFSET -0.279200 12.230698 -2.892100
			CHANNELS 3 Xrotation Yrotation Zrotation
			JOINT Spine1
			{
				OFFSET -0.232667 10.192268 -1.242267
				CHANNELS 3 Xrotation Yrotation Zrotation
				JOINT Spine1_split
				{
					OFFSET -0.232667 10.192268 -1.242267
					CHANNELS 3 Xrotation Yrotation Zrotation
					JOINT Spine2
					{
						OFFSET -0.232667 10.192268 -1.242267
						CHANNELS 3 Xrotation Yrotation Zrotation
						JOINT Neck_virtual
						{
							OFFSET 0.000000 0.000000 0.000000
							CHANNELS 3 Xrotation Yrotation Zrotation
							JOINT Neck
							{
								OFFSET -0.418800 17.814194 8.416900
								CHANNELS 3 Xrotation Yrotation Zrotation
								JOINT Head
								{
									OFFSET 0.000000 7.031097 3.806800
									CHANNELS 3 Xrotation Yrotation Zrotation
									JOINT HeadTop_End
									{
										OFFSET 0.000000 24.646606 12.978600
										CHANNELS 3 Xrotation Yrotation Zrotation
										End Site
										{
											OFFSET 0 0 0
										}
									}
								}
							}
						}
						JOINT LeftShoulder_virtual
						{
							OFFSET 0.000000 0.000000 0.000000
							CHANNELS 3 Xrotation Yrotation Zrotation
							JOINT LeftShoulder
							{
								OFFSET 8.476499 7.247704 -3.868750
								CHANNELS 3 Xrotation Yrotation Zrotation
								JOINT LeftShoulder_split
								{
									OFFSET 8.476499 7.247704 -3.868750
									CHANNELS 3 Xrotation Yrotation Zrotation
									JOINT LeftArm
									{
										OFFSET 9.308998 -2.777710 0.208600
										CHANNELS 3 Xrotation Yrotation Zrotation
										JOINT LeftForeArm
										{
											OFFSET 29.972298 0.000000 0.000000
											CHANNELS 3 Xrotation Yrotation Zrotation
											JOINT LeftHand
											{
												OFFSET 26.026505 0.000000 0.000000
												CHANNELS 3 Xrotation Yrotation Zrotation
												End Site
												{
													OFFSET 0 0 0
												}
											}
										}
									}
								}
							}
						}
						JOINT RightShoulder_virtual
						{
							OFFSET 0.000000 0.000000 0.000000
							CHANNELS 3 Xrotation Yrotation Zrotation
							JOINT RightShoulder
							{
								OFFSET -7.570500 7.247704 -3.868750
								CHANNELS 3 Xrotation Yrotation Zrotation
								JOINT RightShoulder_split
								{
									OFFSET -7.570500 7.247704 -3.868750
									CHANNELS 3 Xrotation Yrotation Zrotation
									JOINT RightArm
									{
										OFFSET -9.308998 -2.777710 0.208500
										CHANNELS 3 Xrotation Yrotation Zrotation
										JOINT RightForeArm
										{
											OFFSET -29.972300 0.000000 0.000000
											CHANNELS 3 Xrotation Yrotation Zrotation
											JOINT RightHand
											{
												OFFSET -26.026505 0.000000 0.000000
												CHANNELS 3 Xrotation Yrotation Zrotation
												End Site
												{
													OFFSET 0 0 0
												}
											}
										}
									}
								}
							}
						}
					}
				}
			}
		}
	}
}
MOTION
Frames: 7
Frame Time: 0.03333333
1.901629 80.835007 -4.063179 0.000000 0.000000 0.000000 34.051386 -24.221323 5.517302 -70.357779 4.438789 24.113845 89.649785 2.863100 -7.037243 7.191132 -5.236610 0.670526 -0.000095 -0.000042 -0.000018 0.000000 0.000000 0.000000 34.051386 -24.221323 5.517302 -48.432639 3.513616 8.558517 48.833179 4.537260 0.042049 -22.574011 -2.256062 -0.683554 -11.137419 0.075432 -0.382174 0.000000 0.000000 0.000000 34.051386 -24.221323 5.517302 11.515357 5.145506 -0.653885 5.818548 0.259714 -2.809619 0.000000 0.000000 0.000000 0.000000 0.000000 0.000000 -10.931795 0.793514 3.196296 0.763631 9.298927 -8.496114 -32.953139 4.763627 2.047907 0.000000 0.000000 0.000000 -10.931795 0.793514 3.196296 1.952248 -2.052959 14.106887 0.000000 0.000000 0.000000 -76.027341 17.447737 -39.907641 -79.531310 -83.559564 -82.552767 0.000000 0.000000 0.000000 -10.931795 0.793514 3.196296 4.985255 19.106677 8.633893 0.000000 0.000000 0.000000 -22.095469 5.720159 42.521339 29.456635 69.546885 -32.206169 0.000000 0.000000 0.000000 
0.752815 82.578766 11.703693 0.000000 0.000000 0.000000 30.199931 -21.745970 5.213648 -79.708519 2.943345 22.897577 81.804370 4.815161 -5.356479 9.675699 -5.479702 -1.614886 -0.023413 0.036144 0.108009 0.000000 0.000000 0.000000 30.199931 -21.745970 5.213648 -30.334127 3.853212 1.352669 44.519904 4.497733 0.541341 -22.462991 -9.789502 5.104535 -20.162934 2.647287 0.122460 0.000000 0.000000 0.000000 30.199931 -21.745970 5.213648 15.397722 6.396482 -5.459822 4.029746 1.227231 -0.599438 0.000000 0.000000 0.000000 0.000000 0.000000 0.000000 -10.285321 0.762047 3.923219 -2.852087 7.836788 -6.163745 -28.170359 4.307469 0.283356 0.000000 0.000000 0.000000 -10.285321 0.762047 3.923219 1.718139 -1.109379 11.529356 0.000000 0.000000 0.000000 -73.265465 13.679086 -35.280540 149.355036 -84.574503 147.520898 0.000000 0.000000 0.000000 -10.285321 0.762047 3.923219 4.280029 20.150726 5.717930 0.000000 0.000000 0.000000 -22.945332 2.376924 38.931470 122.509743 76.439871 -127.618178 0.000000 0.000000 0.000000 
-0.528820 85.362244 26.601955 0.000000 0.000000 0.000000 26.284600 -19.165670 5.287807 -81.049825 4.333713 20.030529 66.378142 7.676367 -3.717132 10.687754 -5.319537 -4.302019 -0.046677 0.072338 0.216011 0.000000 0.000000 0.000000 26.284600 -19.165670 5.287807 -11.914223 3.346263 -4.775296 34.053882 2.764315 0.790807 -12.374487 -15.332287 13.564255 -30.459751 4.857202 2.062012 0.000000 0.000000 0.000000 26.284600 -19.165670 5.287807 19.682771 7.819550 -10.885193 2.102509 2.546437 1.965313 0.000000 0.000000 0.000000 0.000000 0.000000 0.000000 -9.313785 0.947436 4.855493 -6.915199 5.019030 -4.501209 -23.038290 3.199300 -1.694707 0.000000 0.000000 0.000000 -9.313785 0.947436 4.855493 1.575018 -1.138138 7.901666 0.000000 0.000000 0.000000 -68.670251 12.567408 -29.970737 143.981904 -77.688566 143.279132 0.000000 0.000000 0.000000 -9.313785 0.947436 4.855493 3.699679 18.680743 1.234707 0.000000 0.000000 0.000000 -25.214258 8.862764 35.909337 144.796240 69.393117 -150.356670 0.000000 0.000000 0.000000 
-1.960181 87.955750 39.313087 0.000000 0.000000 0.000000 22.449898 -16.442410 5.713220 -74.397234 7.978901 15.746574 47.862448 9.880611 -1.662106 10.619652 -5.052014 -6.286899 -0.068285 -0.016380 0.476712 0.000000 0.000000 0.000000 22.449898 -16.442410 5.713220 0.488212 4.211583 -10.070983 25.684295 -1.480489 0.966506 10.684089 -9.458075 21.360653 -50.548003 5.733965 4.847107 0.000000 0.000000 0.000000 22.449898 -16.442410 5.713220 24.246733 8.963048 -15.846983 0.173433 3.894096 4.232962 0.000000 0.000000 0.000000 0.000000 0.000000 0.000000 -8.139757 1.210103 5.492462 -10.988662 1.368799 -3.315356 -18.012442 1.823732 -3.668780 0.000000 0.000000 0.000000 -8.139757 1.210103 5.492462 1.361032 -2.605524 3.314329 0.000000 0.000000 0.000000 -60.515845 16.225271 -25.721277 135.143967 -66.378347 136.245581 0.000000 0.000000 0.000000 -8.139757 1.210103 5.492462 2.965239 16.086091 -3.315620 0.000000 0.000000 0.000000 -24.438361 17.650211 34.902550 140.099215 71.704760 -145.080895 0.000000 0.000000 0.000000 
-3.225393 89.325806 49.715878 0.000000 0.000000 0.000000 18.866403 -13.777017 6.068730 -64.553136 13.391507 11.011866 35.671646 8.371916 0.471588 4.100206 -5.107948 -7.750514 -0.081513 -0.725336 1.495552 0.000000 0.000000 0.000000 18.866403 -13.777017 6.068730 9.393598 9.278803 -12.925682 24.445394 -6.560645 1.193913 26.541476 -1.191511 25.098985 35.299767 6.473399 -3.893983 0.000000 0.000000 0.000000 18.866403 -13.777017 6.068730 28.630652 9.838067 -18.988151 -1.519174 4.905839 5.559154 0.000000 0.000000 0.000000 0.000000 0.000000 0.000000 -6.863620 1.266539 5.371835 -14.654485 -2.540824 -2.074445 -13.492882 0.690549 -5.540201 0.000000 0.000000 0.000000 -6.863620 1.266539 5.371835 0.759125 -5.033630 -0.900611 0.000000 0.000000 0.000000 -46.886377 24.184098 -27.289613 137.352645 -57.102069 140.325758 0.000000 0.000000 0.000000 -6.863620 1.266539 5.371835 2.064608 19.145401 -0.105394 0.000000 0.000000 0.000000 -18.845783 15.314604 31.325788 112.202680 78.942281 -116.073205 0.000000 0.000000 0.000000 
-3.840075 89.418488 59.699902 0.000000 0.000000 0.000000 15.670759 -11.426372 6.076010 -54.722239 18.032738 6.140322 28.558781 5.939013 2.760918 1.487613 -5.379871 -7.602385 -0.092678 -1.529251 2.631172 0.000000 0.000000 0.000000 15.670759 -11.426372 6.076010 12.949256 11.198607 -13.123133 32.502705 -10.403528 1.743822 28.775461 3.723837 20.847665 11.634988 1.748702 1.138922 0.000000 0.000000 0.000000 15.670759 -11.426372 6.076010 32.302403 10.447118 -18.727725 -2.669987 5.143534 5.015702 0.000000 0.000000 0.000000 0.000000 0.000000 0.000000 -5.566153 0.686415 3.800969 -17.496383 -6.211434 0.517928 -9.742673 0.605239 -7.531037 0.000000 0.000000 0.000000 -5.566153 0.686415 3.800969 -0.004804 -6.052263 -4.657573 0.000000 0.000000 0.000000 -30.554237 29.050533 -35.585648 132.991542 -49.805640 138.132912 0.000000 0.000000 0.000000 -5.566153 0.686415 3.800969 -0.565078 22.650663 11.650181 0.000000 0.000000 0.000000 -10.734374 7.165126 25.745485 60.815280 79.186604 -64.299032 0.000000 0.000000 0.000000 
-3.818789 87.782242 70.741974 0.000000 0.000000 0.000000 13.001649 -9.315704 5.444239 -46.932788 20.300164 1.285585 28.711247 4.789631 5.365247 2.670014 -6.134493 -0.560430 -0.107634 -1.749867 3.050807 0.000000 0.000000 0.000000 13.001649 -9.315704 5.444239 10.895344 8.837109 -12.675225 48.145256 -12.831502 2.631458 16.321242 4.712652 16.670192 3.629392 -0.521542 1.001885 0.000000 0.000000 0.000000 13.001649 -9.315704 5.444239 34.811743 10.433068 -14.069983 -3.109714 4.168121 2.112318 0.000000 0.000000 0.000000 0.000000 0.000000 0.000000 -4.511055 -0.921671 0.515202 -18.930494 -9.099437 5.428772 -6.911723 2.042705 -9.763902 0.000000 0.000000 0.000000 -4.511055 -0.921671 0.515202 -0.564033 -5.116503 -8.998656 0.000000 0.000000 0.000000 -18.809492 24.062618 -46.559374 128.176054 -48.511893 133.177323 0.000000 0.000000 0.000000 -4.511055 -0.921671 0.515202 -1.957629 20.206859 20.486768 0.000000 0.000000 0.000000 -0.270058 0.314872 26.820980 50.521936 66.832021 -53.604544 0.000000 0.000000 0.000000 
